<mxfile host="app.diagrams.net" agent="Mozilla/5.0 (Windows NT 10.0; Win64; x64) AppleWebKit/537.36 (KHTML, like Gecko) Chrome/138.0.0.0 Safari/537.36 OPR/122.0.0.0" version="28.2.8">
  <diagram name="Página-1" id="cV0CqY5XjadQhTSe4HmG">
    <mxGraphModel dx="1104" dy="598" grid="1" gridSize="10" guides="1" tooltips="1" connect="1" arrows="1" fold="1" page="1" pageScale="1" pageWidth="827" pageHeight="1169" math="0" shadow="0">
      <root>
        <mxCell id="0" />
        <mxCell id="1" parent="0" />
        <mxCell id="R5y5lUGUCICoynL2Ilhy-19" value="+-------------------+          +-------------------+&#xa;|      MÉDICO       |          |   ESPECIALIDADE   |&#xa;+-------------------+          +-------------------+&#xa;| id_medico (PK)    |&lt;&gt;------&lt;&gt;| id_especialidade  |&#xa;| nome              |          | nome              |&#xa;| cpf               |          +-------------------+&#xa;| crm               |&#xa;| tipo              |&#xa;| telefone          |&#xa;| email             |&#xa;+-------------------+&#xa;&#xa;&#xa;         |&#xa;         | 1:N&#xa;         v&#xa;&#xa;&#xa;+-------------------+&#xa;|     CONSULTA      |&#xa;+-------------------+&#xa;| id_consulta (PK)  |&#xa;| data_hora         |&#xa;| valor_consulta    |&#xa;| num_carteira_conv |&#xa;| id_medico (FK)    |&#xa;| id_paciente (FK)  |&#xa;| id_especialidade (FK) |&#xa;+-------------------+&#xa;         |&#xa;         | 1:1&#xa;         v&#xa;+-------------------+&#xa;|     RECEITA       |&#xa;+-------------------+&#xa;| id_receita (PK)   |&#xa;| id_consulta (FK)  |&#xa;+-------------------+&#xa;         |&#xa;         | 1:N&#xa;         v&#xa;+-------------------+&#xa;|  MEDICAMENTO_REC  |&#xa;+-------------------+&#xa;| id_med (PK)       |&#xa;| nome_medicamento  |&#xa;| quantidade        |&#xa;| instrucoes_uso    |&#xa;| id_receita (FK)   |&#xa;+-------------------+&#xa;&#xa;&#xa;+-------------------+          +-------------------+&#xa;|     PACIENTE      |          |     CONVÊNIO      |&#xa;+-------------------+          +-------------------+&#xa;| id_paciente (PK)  |&lt;&gt;------1 | id_convenio (PK)  |&#xa;| nome              |          | nome              |&#xa;| data_nascimento   |          | cnpj              |&#xa;| cpf               |          | tempo_carencia    |&#xa;| rg                |          +-------------------+&#xa;| endereco          |&#xa;| telefone          |&#xa;| email             |&#xa;| id_convenio (FK)  |&#xa;+-------------------+" style="text;whiteSpace=wrap;" vertex="1" parent="1">
          <mxGeometry x="180" y="100" width="300" height="960" as="geometry" />
        </mxCell>
      </root>
    </mxGraphModel>
  </diagram>
</mxfile>
